<svg xmlns="http://www.w3.org/2000/svg" viewBox="0 0 327.15 60.84"><defs><style>.cls-1{fill:#fff;}</style></defs><title>aga</title><g id="Layer_2" data-name="Layer 2"><g id="Layer_1-2" data-name="Layer 1"><path class="cls-1" d="M14.91.47h9c4,0,6.4,2.09,6.4,6.2,0,3.2-1.28,5.35-4,5.93v.07c3.3.44,3.81,2.26,3.87,7.34,0,2.53.17,3.84,1.08,4.31v.2H26A4.69,4.69,0,0,1,25.35,22l-.13-4.61c-.07-1.89-.91-3-2.86-3H19.76V24.52H14.91ZM19.76,11h2c2.32,0,3.64-1,3.64-3.6C25.42,5.15,24.24,4,22.05,4H19.76Z"/><path class="cls-1" d="M39.16.47h6l6.36,24H46.47l-1.11-5.08H39l-1.11,5.08H32.8Zm.64,15h4.71L42.19,4.65h-.07Z"/><path class="cls-1" d="M54.29.47h7.95c6.74,0,7.95,4.61,7.95,11.69,0,8.52-1.82,12.36-8.25,12.36H54.29Zm4.85,20.48h2.16c3.37,0,4-2.12,4-8.66,0-5.46-.44-8.25-4.14-8.25H59.13Z"/><path class="cls-1" d="M81.9,0c7.27,0,8.18,5.19,8.18,12.49S89.18,25,81.9,25s-8.18-5.19-8.18-12.49S74.63,0,81.9,0Zm0,21.42c2.86,0,3.33-2.46,3.33-8.92s-.47-8.92-3.33-8.92-3.33,2.49-3.33,8.92S79,21.42,81.9,21.42Z"/><path class="cls-1" d="M116.79.47v4h-5.25V24.52h-4.85V4.45h-5.25v-4Z"/><path class="cls-1" d="M119.72.47h9c4,0,6.4,2.09,6.4,6.2,0,3.2-1.28,5.35-4,5.93v.07c3.3.44,3.81,2.26,3.87,7.34,0,2.53.17,3.84,1.08,4.31v.2h-5.25a4.69,4.69,0,0,1-.61-2.53L130,17.38c-.07-1.89-.91-3-2.86-3h-2.59V24.52h-4.85ZM124.57,11h2c2.32,0,3.64-1,3.64-3.6,0-2.22-1.18-3.33-3.37-3.33h-2.29Z"/><path class="cls-1" d="M143.84.47V17.24c0,2.39.57,4.18,2.83,4.18s2.83-1.78,2.83-4.18V.47h4.85V17.24c0,6.13-3.74,7.75-7.68,7.75S139,23.67,139,17.24V.47Z"/><path class="cls-1" d="M171.69.47v4H163.1V10.1h8.08v4H163.1v6.47H172v4H158.25V.47Z"/><path class="cls-1" d="M198.29.47v4H193V24.52h-4.85V4.45h-5.25v-4Z"/><path class="cls-1" d="M201.22.47h4.85V9.67h5.66V.47h4.85v24h-4.85V13.84h-5.66V24.52h-4.85Z"/><path class="cls-1" d="M221,24.52V.47h4.85v24Z"/><path class="cls-1" d="M235.91.47l5.86,16.47h.07V.47h4.45v24h-5.52L234.83,7.68h-.07V24.52h-4.45V.47Z"/><path class="cls-1" d="M250.5,24.52V.47h4.85V20.54h8.59v4Z"/><path class="cls-1" d="M267.17,24.52V.47H272v24Z"/><path class="cls-1" d="M282.05.47l5.86,16.47H288V.47h4.45v24H286.9L281,7.68h-.07V24.52h-4.45V.47Z"/><path class="cls-1" d="M310.07.47v4h-8.59V10.1h8.08v4h-8.08v6.47h8.92v4H296.63V.47Z"/><path class="cls-1" d="M6.9,36.45h4l6.43,23.92H14.21L12.5,53.81H4.86L3.08,60.38H0ZM5.46,51.39H11.9l-3-11.56H8.78Z"/><path class="cls-1" d="M31.17,43.08c-.13-2.51-1.07-4.69-4-4.69-4.09,0-4.62,4.49-4.62,10s.54,10,4.62,10,4.39-4.89,4.39-8.08H26.84V47.94h7.41V60.38H32V57.13H32a5.31,5.31,0,0,1-5.16,3.72c-6.23,0-7.34-6-7.34-12.43,0-6,1.11-12.43,7.71-12.43,6.87,0,7,5.86,7.07,7.1Z"/><path class="cls-1" d="M38.64,36.45h3.82l7.91,20h.07v-20h2.95V60.38H49.33L41.66,41h-.07V60.38H38.64Z"/><path class="cls-1" d="M58.11,36.45h2.95V60.38H58.11Z"/><path class="cls-1" d="M65.75,36.45H78.12v2.61H68.7v7.51h8.88v2.61H68.7v8.58h9.82v2.61H65.75Z"/><path class="cls-1" d="M92.26,42.65c0-2.51-.9-4.26-3.72-4.26-2.48,0-4,1.34-4,3.89C84.59,49,95.88,45,95.88,53.74c0,5.53-4.05,7.1-7.44,7.1-5.6,0-7.24-2.88-7.24-8h2.95c0,2.68.17,5.56,4.49,5.56a4,4,0,0,0,4.16-4.22c0-6.77-11.29-2.85-11.29-11.63,0-2.21.94-6.6,7-6.6,4.56,0,6.63,2.28,6.7,6.67Z"/><path class="cls-1" d="M98.53,57.9l10.76-18.83H99.13V36.45h13.24v2.71l-10.76,18.6H112.5v2.61h-14Z"/><path class="cls-1" d="M116.06,36.45H119V48h.07l8.28-11.59h3.28l-7.24,10,7.84,13.94H128l-6.47-11.53L119,52.23v8.14h-2.95Z"/><path class="cls-1" d="M138.34,36.45h4l6.43,23.92h-3.08l-1.71-6.57H136.3l-1.78,6.57h-3.08ZM136.9,51.39h6.43l-3-11.56h-.07Z"/><path class="cls-1" d="M160.13,36.45h7.74c3.75,0,6.13,2.21,6.13,6,0,2.61-.9,5.36-3.69,6v.07c2.08.23,3.25,1.94,3.38,4l.2,4.09c.13,2.65.57,3.32,1.27,3.75h-3.55c-.5-.5-.74-2.28-.8-3.45l-.2-3.72c-.23-3.28-2-3.48-3.55-3.48h-4V60.38h-2.95Zm2.95,10.86H166c1.74,0,4.93,0,4.93-4.62,0-2.35-1.58-3.82-4.32-3.82h-3.52Z"/><path class="cls-1" d="M183,36.45h4l6.43,23.92h-3.08l-1.71-6.57H181l-1.78,6.57h-3.08Zm-1.44,14.94H188l-3-11.56h-.07Z"/><path class="cls-1" d="M196.25,36.45h6.4c7.44,0,8.38,5.36,8.38,12,0,6-1.51,12-8.08,12h-6.7ZM199.2,58h3.08c5.09,0,5.66-5.23,5.66-9.52,0-4.62-.3-9.58-5.66-9.58H199.2Z"/><path class="cls-1" d="M213.75,36.45h2.95L220.35,56h.07l3.38-19.57h3.55L230.74,56h.07l3.65-19.57h2.95l-4.93,23.92h-3.58L225.61,41h-.07l-3.45,19.37H218.5Z"/><path class="cls-1" d="M244.54,36.45h4l6.43,23.92h-3.08l-1.71-6.57H242.5l-1.78,6.57h-3.08ZM243.1,51.39h6.43l-3-11.56h-.07Z"/><path class="cls-1" d="M257.45,36.45h3.82l7.91,20h.07v-20h2.95V60.38h-4.05L260.46,41h-.07V60.38h-2.95Z"/><path class="cls-1" d="M287.07,42.65c0-2.51-.91-4.26-3.72-4.26-2.48,0-4,1.34-4,3.89,0,6.74,11.29,2.71,11.29,11.46,0,5.53-4.05,7.1-7.44,7.1-5.6,0-7.24-2.88-7.24-8H279c0,2.68.17,5.56,4.49,5.56a4,4,0,0,0,4.16-4.22c0-6.77-11.29-2.85-11.29-11.63,0-2.21.94-6.6,7-6.6,4.56,0,6.63,2.28,6.7,6.67Z"/><path class="cls-1" d="M294.51,36.45h2.95V48h.07l8.28-11.59h3.28l-7.24,10,7.84,13.94h-3.28l-6.47-11.53-2.48,3.38v8.14h-2.95Z"/><path class="cls-1" d="M316.76,36.45h4l6.43,23.92h-3.08l-1.71-6.57h-7.64l-1.78,6.57h-3.08Zm-1.44,14.94h6.43l-3-11.56h-.07Z"/></g></g></svg>