<?xml version="1.0" encoding="utf-8"?>
<!-- Generator: Adobe Illustrator 21.1.0, SVG Export Plug-In . SVG Version: 6.00 Build 0)  -->
<!DOCTYPE svg PUBLIC "-//W3C//DTD SVG 1.1//EN" "http://www.w3.org/Graphics/SVG/1.1/DTD/svg11.dtd" [
	<!ENTITY st0 "fill:#FFFFFF;">
]>
<svg version="1.1" id="Layer_1" xmlns="http://www.w3.org/2000/svg" xmlns:xlink="http://www.w3.org/1999/xlink" x="0px" y="0px"
	 viewBox="0 0 239.3 24.6" style="enable-background:new 0 0 239.3 24.6;" xml:space="preserve">
<title>cta</title>
<g id="Layer_2">
	<g id="Layer_1-2">
		<polygon style="&st0;" points="218.5,24.6 214.6,22 221.3,12.4 214.6,2.7 218.5,0.1 226.9,12.4 		"/>
		<polygon style="&st0;" points="230.9,24.6 227,22 233.7,12.4 227,2.7 230.9,0.1 239.3,12.4 		"/>
		<path style="&st0;" d="M13.2,0.5v3.9H4.8V10h8v3.9h-8v10.3H0V0.5H13.2z"/>
		<path style="&st0;" d="M15.6,0.5h4.8v23.7h-4.8V0.5z"/>
		<path style="&st0;" d="M35.1,16.7L35.1,16.7l0.1-16.2h4.4v23.7h-5.5L28.3,7.6h-0.1v16.6h-4.4V0.5h5.5L35.1,16.7z"/>
		<path style="&st0;" d="M50.8,0.5c1.4-0.1,2.8,0.2,4,0.8c1,0.5,1.8,1.3,2.4,2.3c0.6,1.1,1,2.4,1.2,3.6c0.2,1.6,0.3,3.2,0.3,4.8
			c0,1.8-0.1,3.6-0.4,5.4c-0.2,1.3-0.6,2.6-1.3,3.8c-0.6,1-1.5,1.7-2.5,2.2c-1.3,0.5-2.6,0.8-4,0.7H43V0.5H50.8z M49.9,20.6
			c0.7,0,1.4-0.1,2-0.4c0.5-0.3,1-0.8,1.2-1.4c0.3-0.8,0.5-1.7,0.6-2.6c0.1-1.1,0.1-2.4,0.2-4c0-1.3,0-2.5-0.1-3.6
			c0-0.9-0.2-1.7-0.5-2.6C53,5.4,52.5,4.9,52,4.5C51.3,4.1,50.6,4,49.8,4h-2v16.7L49.9,20.6z"/>
		<path style="&st0;" d="M69.5,7.3C69.7,6,70,4.7,70.6,3.4c0.5-1.1,1.4-2,2.4-2.5c1.3-0.7,2.8-1,4.3-0.9c1.5-0.1,3,0.2,4.3,0.9
			c1,0.6,1.9,1.5,2.4,2.5c0.6,1.2,1,2.5,1.1,3.9c0.2,1.7,0.3,3.3,0.2,5c0,1.7-0.1,3.3-0.2,5c-0.1,1.4-0.5,2.7-1.1,3.9
			c-0.5,1.1-1.4,1.9-2.4,2.5c-1.3,0.6-2.8,0.9-4.3,0.9c-1.5,0.1-2.9-0.2-4.3-0.9c-1-0.6-1.9-1.4-2.4-2.5c-0.6-1.2-1-2.5-1.1-3.9
			c-0.2-1.7-0.3-3.3-0.2-5C69.3,10.7,69.4,9,69.5,7.3z M74.2,16.3c0,0.9,0.2,1.8,0.5,2.7c0.2,0.6,0.5,1.1,1,1.5c1,0.6,2.4,0.6,3.4,0
			c0.5-0.4,0.8-0.9,1-1.5c0.3-0.9,0.4-1.8,0.5-2.7c0.1-1.1,0.1-2.5,0.1-4.1s0-2.9-0.1-4.1c0-0.9-0.2-1.8-0.5-2.7
			c-0.2-0.6-0.5-1.1-1-1.5c-1-0.6-2.4-0.6-3.4,0c-0.5,0.4-0.8,0.9-1,1.5c-0.3,0.9-0.4,1.8-0.5,2.7c-0.1,1.1-0.1,2.5-0.1,4.1
			S74.1,15.2,74.2,16.3L74.2,16.3z"/>
		<path style="&st0;" d="M92.8,17c0,0.5,0,1.1,0.1,1.6c0.1,0.5,0.2,0.9,0.4,1.3c0.2,0.4,0.5,0.7,0.9,0.9c0.9,0.4,1.9,0.4,2.8,0
			c0.4-0.2,0.6-0.5,0.8-0.9c0.2-0.4,0.4-0.8,0.4-1.3c0.1-0.5,0.1-1.1,0.1-1.6V0.5h4.8V17c0,1.3-0.2,2.5-0.6,3.7
			c-0.4,0.9-0.9,1.7-1.7,2.3c-0.7,0.6-1.5,1-2.4,1.2c-0.9,0.2-1.9,0.3-2.8,0.3c-0.9,0-1.9-0.1-2.8-0.3c-0.9-0.2-1.7-0.5-2.4-1.1
			c-0.8-0.6-1.3-1.4-1.7-2.3C88.2,19.6,88,18.3,88,17V0.5h4.8L92.8,17z"/>
		<path style="&st0;" d="M120.4,4.4h-5.2v19.8h-4.8V4.4h-5.2V0.5h15.1V4.4z"/>
		<path style="&st0;" d="M137.6,0.5l3.4,16.7h0.1l3.4-16.7h7.1v23.7h-4.4V5.2h-0.1l-4.2,18.9h-3.7L135,5.2h-0.1v18.9h-4.4V0.5H137.6
			z"/>
		<path style="&st0;" d="M154.7,7.3c0.1-1.4,0.5-2.7,1.1-3.9c0.5-1.1,1.4-2,2.4-2.5c2.7-1.2,5.8-1.2,8.6,0c1,0.6,1.9,1.5,2.4,2.5
			c0.6,1.2,1,2.5,1.1,3.9c0.2,1.7,0.3,3.3,0.2,5c0,1.7-0.1,3.3-0.2,5c-0.1,1.4-0.5,2.7-1.1,3.9c-0.5,1.1-1.4,1.9-2.4,2.5
			c-2.7,1.2-5.8,1.2-8.6,0c-1-0.6-1.9-1.4-2.4-2.5c-0.6-1.2-1-2.5-1.1-3.9c-0.2-1.7-0.3-3.3-0.2-5C154.4,10.7,154.5,9,154.7,7.3z
			 M159.3,16.3c0,0.9,0.2,1.8,0.5,2.7c0.2,0.6,0.5,1.1,1,1.5c1,0.6,2.4,0.6,3.4,0c0.5-0.4,0.8-0.9,1-1.5c0.3-0.9,0.4-1.8,0.5-2.7
			c0.1-1.1,0.1-2.5,0.1-4.1s0-2.9-0.1-4.1c0-0.9-0.2-1.8-0.5-2.7c-0.2-0.6-0.5-1.1-1-1.5c-1-0.6-2.4-0.6-3.4,0
			c-0.5,0.4-0.8,0.9-1,1.5c-0.3,0.9-0.4,1.8-0.5,2.7c-0.1,1.1-0.1,2.5-0.1,4.1S159.3,15.2,159.3,16.3L159.3,16.3z"/>
		<path style="&st0;" d="M182.2,0.5c1.7-0.1,3.4,0.5,4.6,1.5c1.2,1.2,1.8,2.9,1.7,4.6c0,1.4-0.3,2.7-1,3.9c-0.7,1-1.8,1.7-3,1.9v0.1
			c1,0.1,1.9,0.5,2.6,1.2c0.6,0.8,1,1.8,1,2.9c0,0.4,0.1,0.9,0.1,1.4s0,1.1,0.1,1.7c0,1.3,0.1,2.2,0.2,2.9c0.1,0.6,0.4,1.1,0.9,1.4
			v0.2h-5.1c-0.2-0.3-0.4-0.7-0.5-1.1c-0.1-0.4-0.1-0.9-0.1-1.3l-0.1-4.5c0-0.8-0.2-1.6-0.7-2.2c-0.5-0.6-1.3-0.9-2.1-0.8h-2.6v10
			h-4.8V0.5H182.2z M180.2,10.8c1,0.1,1.9-0.2,2.7-0.8c0.7-0.7,1-1.7,0.9-2.7c0-2.2-1.1-3.3-3.3-3.3h-2.3v6.8H180.2z"/>
		<path style="&st0;" d="M205.1,4.4h-8.5V10h8v3.9h-8v6.4h8.8v3.9h-13.6V0.5h13.2V4.4z"/>
	</g>
</g>
</svg>
