<svg xmlns="http://www.w3.org/2000/svg" viewBox="0 0 587.08 192.9"><defs><style>.cls-1{fill:#fff;}</style></defs><title>logo</title><g id="Layer_2" data-name="Layer 2"><g id="Layer_1-2" data-name="Layer 1"><path class="cls-1" d="M72.69,59.45H50.91V11.78H72.69c15.3,0,20,10.67,20,23.84S88,59.45,72.69,59.45m66,48.88a12.89,12.89,0,0,1-6.54-3.52,13,13,0,0,1-1.58-1.92,12.58,12.58,0,0,1-1.19-2.2s-5.86-15.93-7.58-19.51A25.94,25.94,0,0,0,118.56,76a22.5,22.5,0,0,0-4.41-4.16,25.89,25.89,0,0,0-5.8-3.08,36.1,36.1,0,0,0-7.29-1.9s-.64-.16-2.18-.36c16.86,0,29.42-8.66,29.42-33.25C128.3,15.09,114.88,0,93.15,0H0V7.66A12.94,12.94,0,0,1,12.95,20.61v75A13,13,0,0,1,0,108.6v7.65H63.86V108.6A13,13,0,0,1,50.91,95.65V71.22H68.32c10.36,0,15,11.43,19.09,22.55s7.74,22.47,19.54,22.47h34.31V108.6a12.7,12.7,0,0,1-2.61-.27"/><path class="cls-1" d="M407.57,80.63c0,13.17-4.71,23.84-20,23.84H365.78V11.78h21.78c15.3,0,20,10.67,20,23.84Zm0-80.63h-92.7V7.66a13,13,0,0,1,13,12.94v75a13,13,0,0,1-13,12.95v7.65h92.7c21.73,0,36.79-17.43,36.79-35.6v-45C444.36,17.44,429.3,0,407.57,0"/><path class="cls-1" d="M205.41,69.16l14.11-57.38h15.3l13.32,57.38ZM306,108.58l-.6,0-.6-.07c-.2,0-.39-.06-.59-.11l-.58-.13-.57-.16-.55-.19-.54-.21-.53-.24-.52-.26c-.16-.09-.34-.18-.49-.29s-.33-.2-.49-.31-.31-.21-.46-.33l-.46-.36-.43-.37-.42-.39-.4-.42-.37-.43c-.12-.15-.24-.3-.35-.45l-.33-.47c-.11-.16-.21-.32-.31-.48s-.19-.32-.28-.49l-.27-.51-.24-.53c-.07-.18-.14-.36-.21-.54a4.8,4.8,0,0,1-.18-.56,5,5,0,0,1-.16-.56L267.79,0H187.16l-27.3,99.65c0,.19-.1.38-.16.56s-.12.38-.19.56-.14.36-.21.54-.15.36-.25.53-.17.34-.26.51a4.78,4.78,0,0,1-.29.49c-.1.17-.2.33-.31.48s-.21.31-.33.47-.23.31-.36.45-.24.29-.37.43-.25.28-.39.42l-.41.39-.43.37-.45.36-.47.33c-.15.11-.32.21-.48.31s-.33.19-.5.29-.34.18-.51.26-.35.16-.52.24l-.54.21-.55.19-.57.16c-.19.05-.38.1-.58.13s-.39.08-.59.11l-.59.07-.6,0-.61,0v7.74h58.86V108.6h-.46l-.46,0-.45-.06-.44-.08-.44-.1-.42-.13a4,4,0,0,1-.42-.14l-.41-.16-.4-.18-.39-.2-.37-.21-.36-.23-.36-.25-.34-.27-.32-.28-.31-.3c-.1-.1-.2-.2-.3-.31s-.19-.21-.28-.32L200,105c-.09-.11-.17-.23-.25-.35l-.23-.37c-.08-.12-.14-.25-.21-.38l-.2-.39c-.06-.13-.12-.26-.18-.4l-.16-.41c-.05-.14-.09-.27-.14-.42a3.81,3.81,0,0,1-.13-.42c0-.15-.07-.29-.1-.44a4.07,4.07,0,0,1-.08-.44c0-.15,0-.3-.06-.45s0-.3,0-.45,0-.31,0-.46,0-.31,0-.46,0-.31,0-.46,0-.3.06-.45a4.38,4.38,0,0,1,.08-.44c0-.14.06-.29.1-.43l4-16.44h48.36l3.82,16.44c0,.14.08.29.1.43s.06.3.08.44,0,.3.06.45,0,.31,0,.46,0,.31,0,.46,0,.31,0,.46,0,.31,0,.45,0,.3-.06.45-.05.3-.08.44-.07.29-.1.44-.07.28-.12.42a4.34,4.34,0,0,1-.15.42c0,.14-.1.28-.15.41s-.12.27-.18.4l-.19.39c-.07.13-.15.25-.22.38l-.23.37-.25.35c-.08.12-.18.23-.27.34s-.18.22-.28.32l-.3.31-.31.3-.32.28-.34.27-.35.25-.36.23-.38.21-.38.2-.4.18-.41.16c-.13.06-.27.1-.41.14l-.43.13-.44.1-.44.08-.45.06-.46,0H246v7.65h60.62V108.6l-.61,0"/><path class="cls-1" d="M550.3,80.63c0,13.17-4.71,23.84-20,23.84h-10c-15.3,0-20-10.67-20-23.84v-45c0-13.16,4.71-23.84,20-23.84h10c15.3,0,20,10.67,20,23.84ZM550.3,0h-50c-21.73,0-36.78,17.43-36.78,35.61v45c0,18.17,15,35.6,36.78,35.6h50c21.73,0,36.79-17.43,36.79-35.6v-45C587.08,17.44,572,0,550.3,0"/><path class="cls-1" d="M18.58,164.15c0-4-1.43-6.73-5.87-6.73-3.92,0-6.25,2.12-6.25,6.14,0,10.64,17.83,4.29,17.83,18.11,0,8.74-6.4,11.22-11.75,11.22-8.84,0-11.43-4.55-11.43-12.6H5.77c0,4.24.26,8.8,7.1,8.8a6.37,6.37,0,0,0,6.56-6.68c0-10.68-17.84-4.49-17.84-18.36,0-3.5,1.49-10.43,11.07-10.43,7.2,0,10.48,3.6,10.59,10.54Z"/><polygon class="cls-1" points="56.7 154.36 61.36 154.36 67.14 185.27 67.24 185.27 72.58 154.36 78.2 154.36 83.55 185.27 83.65 185.27 89.42 154.36 94.08 154.36 86.3 192.16 80.63 192.16 75.44 161.56 75.34 161.56 69.88 192.16 64.22 192.16 56.7 154.36"/><rect class="cls-1" x="127.91" y="154.36" width="4.66" height="37.79"/><polygon class="cls-1" points="180.54 192.16 175.88 192.16 175.88 158.49 166.4 158.49 166.4 154.36 190.07 154.36 190.07 158.49 180.54 158.49 180.54 192.16"/><polygon class="cls-1" points="222.05 188.24 239.04 158.49 223 158.49 223 154.36 243.92 154.36 243.92 158.65 226.92 188.03 244.12 188.03 244.12 192.16 222.05 192.16 222.05 188.24"/><polygon class="cls-1" points="278.75 154.36 298.29 154.36 298.29 158.49 283.41 158.49 283.41 170.35 297.44 170.35 297.44 174.48 283.41 174.48 283.41 188.03 298.92 188.03 298.92 192.16 278.75 192.16 278.75 154.36"/><path class="cls-1" d="M338.26,171.52h4.61c2.75,0,7.78,0,7.78-7.31,0-3.7-2.49-6-6.83-6h-5.56Zm-4.66-17.15h12.23c5.93,0,9.69,3.49,9.69,9.47,0,4.12-1.43,8.47-5.83,9.53v.1c3.28.37,5.13,3.07,5.35,6.3l.32,6.46c.21,4.17.9,5.23,2,5.93h-5.62c-.79-.79-1.17-3.6-1.27-5.45l-.31-5.87c-.38-5.19-3.23-5.51-5.62-5.51h-6.3v16.84H333.6Z"/><polygon class="cls-1" points="391.42 154.36 396.08 154.36 396.08 188.03 411.43 188.03 411.43 192.16 391.42 192.16 391.42 154.36"/><path class="cls-1" d="M450.4,178h10.16l-4.82-18.25h-.1Zm2.28-23.6h6.25l10.16,37.79h-4.87l-2.7-10.38H449.45l-2.81,10.38h-4.87Z"/><polygon class="cls-1" points="502.07 154.36 508.11 154.36 520.6 185.92 520.71 185.92 520.71 154.36 525.36 154.36 525.36 192.16 518.96 192.16 506.84 161.56 506.73 161.56 506.73 192.16 502.07 192.16 502.07 154.36"/><path class="cls-1" d="M567,188.35h4.87c8,0,8.94-8.26,8.94-15,0-7.3-.47-15.13-8.94-15.13H567Zm-4.66-34h10.11c11.75,0,13.23,8.47,13.23,18.89,0,9.53-2.38,18.9-12.76,18.9H562.32Z"/></g></g></svg>