<svg xmlns="http://www.w3.org/2000/svg" xmlns:xlink="http://www.w3.org/1999/xlink" viewBox="0 0 230.39 238.11"><defs><style>.cls-1{fill:#002e6e;}.cls-2{fill:#fff;}.cls-3{fill:#ccc;}.cls-4{fill:url(#linear-gradient);}.cls-5{fill:#00529c;}.cls-6{fill:#00539c;}.cls-7{fill:#00539d;}.cls-8{fill:#00549d;}.cls-9{fill:#00549e;}.cls-10{fill:#00559e;}.cls-11{fill:#00569f;}.cls-12{fill:#00579f;}.cls-13{fill:#0057a0;}.cls-14{fill:#0058a0;}.cls-15{fill:#0259a0;}.cls-16{fill:#0559a1;}.cls-17{fill:#0959a1;}.cls-18{fill:#0c5aa1;}.cls-19{fill:#0f5aa1;}.cls-20{fill:#115ba2;}.cls-21{fill:#135ba2;}.cls-22{fill:#155ba2;}.cls-23{fill:#175ca2;}.cls-24{fill:#195ca3;}.cls-25{fill:#1b5da3;}.cls-26{fill:#1c5da3;}.cls-27{fill:#1e5ea4;}.cls-28{fill:#1f5ea4;}.cls-29{fill:#215ea4;}.cls-30{fill:#225fa4;}.cls-31{fill:#245fa5;}.cls-32{fill:#2560a5;}.cls-33{fill:#2660a5;}.cls-34{fill:#2860a5;}.cls-35{fill:#2961a6;}.cls-36{fill:#2a61a6;}.cls-37{fill:#2c62a6;}.cls-38{fill:#2d62a7;}.cls-39{fill:#2e62a7;}.cls-40{fill:#2f63a7;}.cls-41{fill:#3063a7;}.cls-42{fill:#3164a8;}.cls-43{fill:#3364a8;}.cls-44{fill:#3465a8;}.cls-45{fill:#3565a9;}.cls-46{fill:#3666a9;}.cls-47{fill:#3766a9;}.cls-48{fill:#3867a9;}.cls-49{fill:#3967aa;}.cls-50{fill:#3a67aa;}.cls-51{fill:#bb2219;}.cls-52{fill:#e12b22;}.cls-53{fill:url(#linear-gradient-2);}.cls-54{fill:url(#linear-gradient-3);}.cls-55{fill:url(#linear-gradient-4);}.cls-56{fill:url(#linear-gradient-5);}</style><linearGradient id="linear-gradient" x1="612.22" y1="36.09" x2="629.47" y2="36.09" gradientTransform="translate(-440.85 0.69)" gradientUnits="userSpaceOnUse"><stop offset="0" stop-color="#bcbec0"/><stop offset="0.01" stop-color="#bdbfc1"/><stop offset="0.26" stop-color="#dadbdc"/><stop offset="0.51" stop-color="#eeefef"/><stop offset="0.76" stop-color="#fbfbfb"/><stop offset="1" stop-color="#fff"/></linearGradient><linearGradient id="linear-gradient-2" x1="531.82" y1="180.95" x2="554.13" y2="180.95" gradientTransform="translate(-341.35 -113.98)" gradientUnits="userSpaceOnUse"><stop offset="0" stop-color="#003974"/><stop offset="0.5" stop-color="#00529c"/><stop offset="1" stop-color="#003974"/></linearGradient><linearGradient id="linear-gradient-3" x1="715.13" y1="36.76" x2="736.76" y2="36.76" gradientTransform="translate(-523.98 0.69)" gradientUnits="userSpaceOnUse"><stop offset="0" stop-color="#e12b22"/><stop offset="0.08" stop-color="#e23127"/><stop offset="0.19" stop-color="#e44234"/><stop offset="0.31" stop-color="#e85d4a"/><stop offset="0.44" stop-color="#ed8369"/><stop offset="0.5" stop-color="#ef9577"/><stop offset="0.62" stop-color="#eb745c"/><stop offset="0.79" stop-color="#e54c3d"/><stop offset="0.92" stop-color="#e23429"/><stop offset="1" stop-color="#e12b22"/></linearGradient><linearGradient id="linear-gradient-4" x1="714.95" y1="23.49" x2="736.76" y2="23.49" gradientTransform="translate(-523.98 0.69)" gradientUnits="userSpaceOnUse"><stop offset="0" stop-color="#00529c"/><stop offset="0.41" stop-color="#005099"/><stop offset="0.66" stop-color="#004b91"/><stop offset="0.86" stop-color="#004283"/><stop offset="1" stop-color="#003974"/></linearGradient><linearGradient id="linear-gradient-5" x1="695.35" y1="25.73" x2="713.81" y2="25.73" gradientTransform="translate(-523.98 0.69)" gradientUnits="userSpaceOnUse"><stop offset="0" stop-color="#bb2219"/><stop offset="1" stop-color="#e12b22"/></linearGradient></defs><title>Asset 1</title><g id="Layer_2" data-name="Layer 2"><g id="Layer_1-2" data-name="Layer 1"><path class="cls-1" d="M191.08,19.55c0-.65-.07-1.29-.11-1.94h-1.14c0,.5-.08,1-.12,1.48A7.72,7.72,0,0,1,191.08,19.55Z"/><path class="cls-2" d="M192.49,39.17c-.49-.45-.93-.82-1.34-1.16a191,191,0,0,1-3.66,30.64,19.78,19.78,0,0,0,3.68,4.41c4,3.43,7,7.31,7.72,10.14h10c.05-4.64-2.27-8.66-9.5-15.2-5.07-4.6-8.51-12.58-8.92-17.26,0,0,1.08,1.09,1.71,1.66,3.94,3.91,6.83,4.76,10,5.07,4.84.48,6.49.79,10.65,4V47.85c-4.17-3.15-5.84-3.25-10.65-4C196.62,42.93,197.07,43.42,192.49,39.17Z"/><path class="cls-3" d="M187.84,45.7h0a76.19,76.19,0,0,1-3.35,17.19,36.87,36.87,0,0,0,3,5.76A191,191,0,0,0,191.15,38a13.71,13.71,0,0,0-2.59-1.73C188.34,39.6,188.13,42.73,187.84,45.7Z"/><path class="cls-2" d="M176,40.78a33.33,33.33,0,0,1,5.41,1l-.14,0A5.88,5.88,0,0,0,180.11,39c-1.26-1.93-3-2.47-6.89-5.59a8.11,8.11,0,0,1-1.85-2.1v8.07S171.35,40.19,176,40.78Z"/><path class="cls-4" d="M173.22,33.4c3.93,3.12,5.63,3.66,6.89,5.59a5.88,5.88,0,0,1,1.16,2.79l.14,0c.49.15,1,.31,1.42.5l.43.19c.38.18.75.36,1.12.56l.48.28c.37.23.73.48,1.09.74.14.1.28.19.42.3a16.56,16.56,0,0,1,1.47,1.31c.3-3,.51-6.11.73-9.42h0c0-.34,0-.69.06-1-4.32-4.5-7.72-5.13-12.75-5.82-3-.4-4-.95-4.32-1.27l-.11-.13a.29.29,0,0,1-.07-.15V31.3A8.11,8.11,0,0,0,173.22,33.4Z"/><path class="cls-5" d="M184.45,62.81l0,.08a76.19,76.19,0,0,0,3.35-17.19h0a16.56,16.56,0,0,0-1.47-1.31c-.14-.11-.28-.2-.42-.3-.36-.27-.72-.52-1.09-.74l-.48-.28c-.37-.2-.74-.39-1.12-.56l-.43-.19c-.46-.18-.93-.35-1.42-.5a33.33,33.33,0,0,0-5.41-1c-4.65-.58-4.63-1.41-4.63-1.41V83.2c6.79-6.76,10.73-13.25,13.12-20.31Z"/><path class="cls-5" d="M171.37,77.72c5.16-5.05,9-9.47,10.49-15,2.21-8.28-.87,1.11-10.47-11"/><path class="cls-5" d="M171.37,77.63c5.1-5,8.92-9.35,10.36-14.79,2.18-8.19-.87,1-10.34-11"/><path class="cls-6" d="M171.37,77.54c5-4.92,8.8-9.22,10.23-14.6,2.16-8.11-.87.81-10.21-10.94"/><path class="cls-7" d="M171.37,77.44c5-4.85,8.68-9.09,10.1-14.42,2.14-8-.87.67-10.08-10.9"/><path class="cls-7" d="M171.38,77.35c4.9-4.78,8.57-9,10-14.23,2.12-7.94-.87.52-9.95-10.86"/><path class="cls-8" d="M171.38,77.25c4.83-4.71,8.45-8.84,9.83-14,2.09-7.85-.87.38-9.82-10.82"/><path class="cls-9" d="M171.38,77.16c4.77-4.64,8.33-8.71,9.7-13.86,2.07-7.77-.86.23-9.69-10.78"/><path class="cls-10" d="M171.38,77.07c4.7-4.57,8.22-8.59,9.57-13.67,2-7.68-.86.09-9.55-10.73"/><path class="cls-10" d="M171.38,77c4.64-4.5,8.1-8.46,9.44-13.48,2-7.59-.86-.06-9.42-10.69"/><path class="cls-10" d="M171.38,76.88c4.57-4.43,8-8.33,9.3-13.3,2-7.51-.86-.2-9.29-10.65"/><path class="cls-11" d="M171.39,76.79c4.5-4.36,7.87-8.2,9.17-13.11,2-7.42-.86-.35-9.16-10.61"/><path class="cls-11" d="M171.39,76.69c4.44-4.29,7.75-8.08,9-12.92,2-7.34-.86-.49-9-10.57"/><path class="cls-12" d="M171.39,76.6c4.37-4.23,7.64-8,8.91-12.74,1.93-7.25-.85-.64-8.9-10.53"/><path class="cls-12" d="M171.39,76.51c4.31-4.16,7.52-7.82,8.77-12.55,1.91-7.17-.85-.78-8.77-10.48"/><path class="cls-13" d="M171.39,76.41c4.24-4.09,7.4-7.7,8.64-12.36,1.89-7.08-.85-.93-8.63-10.44"/><path class="cls-14" d="M171.39,76.32c4.18-4,7.29-7.57,8.51-12.17,1.87-7-.85-1.07-8.5-10.4"/><path class="cls-14" d="M171.4,76.22c4.11-3.95,7.17-7.44,8.38-12,1.84-6.91-.85-1.22-8.37-10.36"/><path class="cls-15" d="M171.4,76.13c4-3.88,7.05-7.32,8.24-11.8C181.46,57.5,178.8,63,171.4,54"/><path class="cls-16" d="M171.4,76c4-3.81,6.94-7.19,8.11-11.61,1.8-6.74-.84-1.51-8.11-10.27"/><path class="cls-17" d="M171.4,75.94c3.91-3.74,6.82-7.06,8-11.43,1.77-6.66-.84-1.65-8-10.23"/><path class="cls-18" d="M171.4,75.85c3.85-3.67,6.7-6.93,7.85-11.24,1.75-6.57-.84-1.8-7.85-10.19"/><path class="cls-19" d="M171.4,75.76c3.78-3.6,6.59-6.81,7.71-11.05,1.73-6.49-.84-1.95-7.71-10.15"/><path class="cls-20" d="M171.41,75.66c3.71-3.54,6.47-6.68,7.58-10.87,1.71-6.4-.84-2.09-7.58-10.11"/><path class="cls-21" d="M171.41,75.57c3.65-3.47,6.35-6.55,7.45-10.68,1.68-6.32-.84-2.24-7.45-10.07"/><path class="cls-22" d="M171.41,75.47C175,72.08,177.65,69,178.73,65c1.66-6.23-.83-2.38-7.32-10"/><path class="cls-23" d="M171.41,75.38c3.52-3.33,6.12-6.3,7.19-10.31,1.64-6.15-.83-2.53-7.19-10"/><path class="cls-24" d="M171.41,75.29c3.45-3.26,6-6.17,7.05-10.12,1.62-6.06-.83-2.67-7.06-9.94"/><path class="cls-25" d="M171.42,75.19c3.39-3.19,5.89-6,6.92-9.93,1.59-6-.83-2.82-6.93-9.9"/><path class="cls-26" d="M171.42,75.1c3.32-3.12,5.77-5.92,6.79-9.74,1.57-5.89-.83-3-6.79-9.86"/><path class="cls-27" d="M171.42,75c3.25-3.05,5.66-5.79,6.66-9.56,1.55-5.81-.82-3.11-6.66-9.82"/><path class="cls-28" d="M171.42,74.91c3.19-3,5.54-5.66,6.52-9.37,1.52-5.72-.82-3.25-6.53-9.77"/><path class="cls-29" d="M171.42,74.82c3.12-2.91,5.42-5.54,6.39-9.18,1.5-5.64-.82-3.4-6.4-9.73"/><path class="cls-30" d="M171.42,74.73c3.06-2.84,5.31-5.41,6.26-9,1.48-5.55-.82-3.54-6.27-9.69"/><path class="cls-31" d="M171.43,74.63c3-2.78,5.19-5.28,6.13-8.81,1.46-5.46-.82-3.69-6.14-9.65"/><path class="cls-32" d="M171.43,74.54c2.92-2.71,5.07-5.16,6-8.62,1.43-5.38-.82-3.83-6-9.61"/><path class="cls-33" d="M171.43,74.44c2.86-2.64,5-5,5.86-8.44,1.41-5.29-.81-4-5.87-9.56"/><path class="cls-34" d="M171.43,74.35c2.79-2.57,4.84-4.9,5.73-8.25,1.39-5.21-.81-4.12-5.74-9.52"/><path class="cls-35" d="M171.43,74.26c2.73-2.5,4.72-4.77,5.6-8.06,1.36-5.12-.81-4.27-5.61-9.48"/><path class="cls-36" d="M171.43,74.16c2.66-2.43,4.61-4.65,5.46-7.87,1.34-5-.81-4.42-5.48-9.44"/><path class="cls-37" d="M171.44,74.07c2.6-2.36,4.49-4.52,5.33-7.69,1.32-5-.81-4.56-5.35-9.4"/><path class="cls-38" d="M171.44,74c2.53-2.29,4.37-4.39,5.2-7.5,1.3-4.87-.81-4.71-5.22-9.36"/><path class="cls-39" d="M171.44,73.88c2.46-2.22,4.26-4.27,5.07-7.31,1.27-4.78-.8-4.85-5.09-9.31"/><path class="cls-40" d="M171.44,73.79c2.4-2.15,4.14-4.14,4.93-7.13,1.25-4.7-.8-5-5-9.27"/><path class="cls-41" d="M171.44,73.7c2.33-2.08,4-4,4.8-6.94,1.23-4.61-.8-5.14-4.82-9.23"/><path class="cls-42" d="M171.44,73.6c2.27-2,3.91-3.89,4.67-6.75,1.21-4.53-.8-5.29-4.69-9.19"/><path class="cls-43" d="M171.45,73.51c2.2-1.95,3.79-3.76,4.54-6.57,1.18-4.44-.8-5.43-4.56-9.15"/><path class="cls-44" d="M171.45,73.41c2.14-1.88,3.68-3.63,4.41-6.38,1.16-4.36-.8-5.58-4.43-9.1"/><path class="cls-45" d="M171.45,73.32a12,12,0,0,0,4.27-6.19c1.14-4.27-.79-5.72-4.3-9.06"/><path class="cls-46" d="M171.45,73.23a11.53,11.53,0,0,0,4.14-6c1.11-4.19-.79-5.87-4.17-9"/><path class="cls-47" d="M171.45,73.13a11.07,11.07,0,0,0,4-5.82c1.09-4.1-.79-6-4-9"/><path class="cls-48" d="M171.46,73a10.62,10.62,0,0,0,3.88-5.63c1.07-4-.79-6.16-3.9-8.94"/><path class="cls-49" d="M171.46,72.95a10.17,10.17,0,0,0,3.74-5.44c1-3.93-.79-6.3-3.77-8.9"/><path class="cls-50" d="M171.46,72.85a9.72,9.72,0,0,0,3.61-5.26c1-3.85-.79-6.45-3.64-8.85"/><path class="cls-51" d="M184.49,62.89C182.1,70,178.16,76.44,171.37,83.2h11.75a76.48,76.48,0,0,0,4.37-14.55A36.87,36.87,0,0,1,184.49,62.89Z"/><path class="cls-52" d="M191.17,73.06a19.78,19.78,0,0,1-3.68-4.41,76.48,76.48,0,0,1-4.37,14.55h15.77C198.14,80.37,195.21,76.48,191.17,73.06Z"/><path class="cls-2" d="M195.51,22.63a16.19,16.19,0,0,0-4.43-3.08q.2,3.71.25,7.51a21.25,21.25,0,0,1,2.57,2c4.57,4.22,4.13,4.47,9.62,5.35,4.71.75,6.28,1,9.27,3V30.75A28.62,28.62,0,0,0,205.13,28C199.63,27.08,200.07,26.89,195.51,22.63Z"/><path class="cls-53" d="M192.18,52.4c-.63-.57-1.71-1.66-1.71-1.66.42,4.68,3.85,12.67,8.92,17.26,7.23,6.54,9.55,10.56,9.5,15.2h3.89V61.49c-4.16-3.23-5.8-3.54-10.65-4C199,57.16,196.12,56.31,192.18,52.4Z"/><path class="cls-54" d="M193.89,29.1a21.25,21.25,0,0,0-2.57-2c0,3.64,0,7.32-.18,11,.41.34.86.7,1.34,1.16,4.58,4.25,4.13,3.77,9.64,4.66,4.82.77,6.48.87,10.65,4V37.5c-3-2.06-4.55-2.29-9.27-3C198,33.58,198.46,33.32,193.89,29.1Z"/><path class="cls-51" d="M188.63,35.24h0c0,.35-.05.7-.07,1A13.71,13.71,0,0,1,191.15,38c.15-3.64.22-7.31.18-11a13.44,13.44,0,0,0-2.11-1.2C189,29.16,188.81,32.28,188.63,35.24Z"/><path class="cls-3" d="M189.22,25.86a13.44,13.44,0,0,1,2.11,1.2q0-3.79-.25-7.51a7.72,7.72,0,0,0-1.38-.46C189.52,21.42,189.35,23.69,189.22,25.86Z"/><path class="cls-55" d="M191.08,19.55a16.19,16.19,0,0,1,4.43,3.08c4.56,4.26,4.12,4.45,9.62,5.36a28.62,28.62,0,0,1,7.65,2.76V17.61H191C191,18.25,191.05,18.9,191.08,19.55Z"/><path class="cls-56" d="M171.55,28.15c.35.33,1.37.87,4.33,1.27,5,.69,8.43,1.32,12.75,5.82.18-3,.36-6.08.59-9.38h0c.14-2.17.31-4.44.49-6.77h0c0-.49.08-1,.12-1.48H171.37V27.87a.29.29,0,0,0,.07.15Z"/><path class="cls-2" d="M140.19,19.13a2.14,2.14,0,0,0-2.07-1.52H125.5L100.6,83.2H114l.65-1.84c1.57-4.69,6.45-15.6,17.71-15.6s16.13,10.91,17.71,15.6c0,0,.43,1.24.64,1.84h13.43Zm-7.82,37c-5.74,0-8.34,1.92-8.34,1.92l8.34-24.28,8.34,24.28S138.12,56.14,132.38,56.14Z"/><path class="cls-2" d="M46.86,121.09a8,8,0,0,0-5.77-7.93,7.53,7.53,0,0,0,4.4-6.76c0-7-6.33-8.49-12.11-8.4H17.71v33.52h16.1C41,131.51,46.86,129.07,46.86,121.09ZM26.43,104.75h6.76c1.84,0,3.57.8,3.57,3.24s-2.06,3.19-3.57,3.19H26.43Zm0,19.76v-7.7h7c2.63,0,4.69,1,4.69,3.94,0,2.76-1.92,3.75-4.69,3.75Z"/><path class="cls-2" d="M61.52,119.31h6.62c4.08,0,4.65,3.47,4.88,6.85.09.94.23,4.22,1,5.35h8.64c-1.17-1.22-1.31-6.15-1.41-7.56-.28-3.19-1.31-7.18-4.88-8v-.09c3.52-1.36,5.26-4.79,5.26-8.41,0-6.76-5.83-9.43-11.74-9.43H52.79v33.52h8.73Zm0-14.32h6.94c2.44,0,4.41,1.13,4.41,3.61s-1.41,3.94-4,3.94H61.52Z"/><rect class="cls-2" x="87.87" y="97.99" width="8.73" height="33.52"/><polygon class="cls-2" points="130.41 97.99 101.68 97.99 101.68 105.5 111.68 105.5 111.68 131.51 120.41 131.51 120.41 105.5 130.41 105.5 130.41 97.99"/><rect class="cls-2" x="135.45" y="97.99" width="8.73" height="33.52"/><path class="cls-2" d="M168.93,111.32c-4.88-1.36-9.72-1.83-9.72-4.41,0-2.2,2.35-2.86,4.22-2.86,2.67,0,5.54,1,5.4,4h8.73c0-7.56-6.76-10.8-13.42-10.8-6.29,0-13.66,2.87-13.66,10.19,0,6.15,5,8.31,9.81,9.68s9.62,1.92,9.62,4.88c0,2.49-2.72,3.43-5.35,3.43-3.71,0-6.15-1.26-6.34-5.21h-8.73c0,8.58,6.86,12,14.55,12,7.37,0,14.6-2.73,14.6-11.22C178.64,114.94,173.76,112.69,168.93,111.32Z"/><polygon class="cls-2" points="204.05 110.2 192.55 110.2 192.55 97.99 183.82 97.99 183.82 131.51 192.55 131.51 192.55 117.71 204.05 117.71 204.05 131.51 212.78 131.51 212.78 97.99 204.05 97.99 204.05 110.2"/><polygon class="cls-2" points="17.71 146.25 28.41 146.25 28.41 174.08 37.75 174.08 37.75 146.25 48.45 146.25 48.45 138.21 17.71 138.21 17.71 146.25"/><polygon class="cls-2" points="63.19 159.21 80.78 159.21 80.78 151.98 63.19 151.98 63.19 145.7 82.44 145.7 82.44 138.21 53.85 138.21 53.85 174.08 82.94 174.08 82.94 166.04 63.19 166.04 63.19 159.21"/><polygon class="cls-2" points="111.59 160.32 111.5 160.32 99.03 138.21 89.44 138.21 89.44 174.08 98.23 174.08 98.23 151.73 98.33 151.73 110.79 174.08 120.39 174.08 120.39 138.21 111.59 138.21 111.59 160.32"/><polygon class="cls-2" points="150.1 160.32 150 160.32 137.54 138.21 127.94 138.21 127.94 174.08 136.74 174.08 136.74 151.73 136.84 151.73 149.29 174.08 158.89 174.08 158.89 138.21 150.1 138.21 150.1 160.32"/><rect class="cls-2" x="166.55" y="138.21" width="9.34" height="35.87"/><path class="cls-2" d="M202.38,152.48c-5.22-1.46-10.39-2-10.39-4.72,0-2.36,2.51-3.06,4.52-3.06,2.86,0,5.93,1.05,5.78,4.32h9.35c-.05-8.09-7.23-11.55-14.37-11.55-6.73,0-14.62,3.06-14.62,10.91,0,6.58,5.38,8.89,10.5,10.34s10.3,2.06,10.3,5.23c0,2.67-2.92,3.66-5.73,3.66-4,0-6.58-1.35-6.78-5.57h-9.35c.05,9.2,7.34,12.81,15.57,12.81,7.88,0,15.62-2.91,15.62-12C212.78,156.34,207.56,153.94,202.38,152.48Z"/><path class="cls-2" d="M28.27,83.2h33.1V70.93H34.66a2.86,2.86,0,0,1-2.87-2.86V17.61H17.71v55A10.56,10.56,0,0,0,28.27,83.2Z"/><path class="cls-2" d="M108.48,19.68a2.07,2.07,0,0,0-2.07-2.07H52.24v9.21a2.06,2.06,0,0,0,2.06,2.06h19V83.2H87.4V28.88h21.07Z"/><polygon class="cls-2" points="82.5 211.51 80.95 214.99 84.2 214.99 82.53 211.51 82.5 211.51"/><path class="cls-2" d="M185.89,210.73a5.15,5.15,0,0,0-1.46-.12H183V214h1.27a6.36,6.36,0,0,0,1.5-.14,1.62,1.62,0,0,0,1.36-1.61A1.53,1.53,0,0,0,185.89,210.73Z"/><path class="cls-2" d="M209.28,212.07a1.29,1.29,0,0,0-1-1.31,5,5,0,0,0-1.48-.15h-1.61v3h1.41a4.92,4.92,0,0,0,1.58-.19A1.38,1.38,0,0,0,209.28,212.07Z"/><path class="cls-2" d="M24.58,210.56a3.48,3.48,0,0,0-3.84,3.64c0,2.13,1.34,3.64,3.84,3.64s3.86-1.51,3.86-3.64S27.09,210.56,24.58,210.56Z"/><path class="cls-2" d="M219.83,0H0V227.54a10.56,10.56,0,0,0,10.56,10.57H230.39V10.57A10.56,10.56,0,0,0,219.83,0ZM24.58,219.92c-3.65,0-6.29-2.18-6.29-5.73s2.62-5.73,6.29-5.73,6.31,2.24,6.31,5.73S28.25,219.92,24.58,219.92Zm17.2-9.32h-6.1v2.67h5.56v2H35.68v4.44H33.32v-11.2h8.47Zm10.71,0h-6.1v2.67h5.56v2H46.39v4.44H44v-11.2h8.47Zm4.61,9.15H54.74v-11.2H57.1Zm8.74.17c-4,0-6.31-2.26-6.31-5.61s2.6-5.85,6.37-5.85a10.33,10.33,0,0,1,4.33,1l-.66,1.9a8.32,8.32,0,0,0-3.5-.76c-2.53,0-4.1,1.55-4.1,3.66s1.41,3.62,4,3.62a8.58,8.58,0,0,0,3.55-.75l.73,1.94A11.06,11.06,0,0,1,65.84,219.92Zm8.82-.17H72.3v-11.2h2.36Zm11.83,0L85.18,217H80l-1.21,2.74H76.26l5.3-11.25h2l5.63,11.25Zm12.43,0H90.74v-11.2H93.1v9.15h5.81Zm13.63-9.15h-4v9.15h-2.38v-9.15h-4v-2.06h10.37Zm3.93,9.15h-2.36v-11.2h2.36Zm16.42,0h-2.36v-7.33h0l-4.13,4.93H126l-4.13-4.93h0v7.33h-2.36v-11.2h2.06l4.64,5.54h0l4.64-5.54h2Zm11.51,0h-8.48v-11.2h8.38v2.06h-6v2.45h5.47v2.06h-5.47v2.58h6.12Zm9.64,0-4-4.49-.75.75v3.74h-2.36v-11.2h2.36v4.66h0l4.39-4.66h3l-5.12,5.13,5.46,6.07Zm13.06,0h-8.48v-11.2H167v2.06h-6v2.45h5.47v2.06H161v2.58h6.12Zm11,0h-8.48v-11.2H178v2.06h-6v2.45h5.47v2.06H172v2.58h6.12Zm8.26-3.88a8.84,8.84,0,0,1-2.07.19H183v3.69h-2.36v-11.2h3.91a8.24,8.24,0,0,1,2.19.24,3.44,3.44,0,0,1,2.84,3.45A3.64,3.64,0,0,1,186.36,215.88Zm14,3.88h-8.48v-11.2h8.38v2.06h-6v2.45h5.47v2.06h-5.47v2.58h6.12Zm10.9.14a3.43,3.43,0,0,1-2-.61c-1.72-1.17-2.23-3.66-3.25-3.66h-.76v4.13h-2.36v-11.2h4a7.84,7.84,0,0,1,2.53.32,3.1,3.1,0,0,1,2.35,3.13c0,1.77-1.19,2.84-3.06,3.16v0c.71.41,1.12,1.73,1.94,2.35a1.52,1.52,0,0,0,1,.36,2.93,2.93,0,0,0,.83-.14l.44,1.87A5,5,0,0,1,211.25,219.89Zm15.72-31H10.66a7,7,0,0,1-7-7V3.52H219.73a7.21,7.21,0,0,1,7.24,7Z"/></g></g></svg>