<svg xmlns="http://www.w3.org/2000/svg" xmlns:xlink="http://www.w3.org/1999/xlink" viewBox="0 0 321.15 102.05"><defs><style>.cls-1{fill:#002e6e;}.cls-2{fill:#fff;}.cls-3{fill:#ccc;}.cls-4{fill:url(#linear-gradient);}.cls-5{fill:#00529c;}.cls-6{fill:#00539c;}.cls-7{fill:#00539d;}.cls-8{fill:#00549d;}.cls-9{fill:#00549e;}.cls-10{fill:#00559e;}.cls-11{fill:#00569f;}.cls-12{fill:#00579f;}.cls-13{fill:#0057a0;}.cls-14{fill:#0058a0;}.cls-15{fill:#0259a0;}.cls-16{fill:#0559a1;}.cls-17{fill:#0959a1;}.cls-18{fill:#0c5aa1;}.cls-19{fill:#0f5aa1;}.cls-20{fill:#115ba2;}.cls-21{fill:#135ba2;}.cls-22{fill:#155ba2;}.cls-23{fill:#175ca2;}.cls-24{fill:#195ca3;}.cls-25{fill:#1b5da3;}.cls-26{fill:#1c5da3;}.cls-27{fill:#1e5ea4;}.cls-28{fill:#1f5ea4;}.cls-29{fill:#215ea4;}.cls-30{fill:#225fa4;}.cls-31{fill:#245fa5;}.cls-32{fill:#2560a5;}.cls-33{fill:#2660a5;}.cls-34{fill:#2860a5;}.cls-35{fill:#2961a6;}.cls-36{fill:#2a61a6;}.cls-37{fill:#2c62a6;}.cls-38{fill:#2d62a7;}.cls-39{fill:#2e62a7;}.cls-40{fill:#2f63a7;}.cls-41{fill:#3063a7;}.cls-42{fill:#3164a8;}.cls-43{fill:#3364a8;}.cls-44{fill:#3465a8;}.cls-45{fill:#3565a9;}.cls-46{fill:#3666a9;}.cls-47{fill:#3766a9;}.cls-48{fill:#3867a9;}.cls-49{fill:#3967aa;}.cls-50{fill:#3a67aa;}.cls-51{fill:#bb2219;}.cls-52{fill:#e12b22;}.cls-53{fill:url(#linear-gradient-2);}.cls-54{fill:url(#linear-gradient-3);}.cls-55{fill:url(#linear-gradient-4);}.cls-56{fill:url(#linear-gradient-5);}</style><linearGradient id="linear-gradient" x1="575.29" y1="28.16" x2="588.82" y2="28.16" gradientTransform="translate(-440.85 0.69)" gradientUnits="userSpaceOnUse"><stop offset="0" stop-color="#bcbec0"/><stop offset="0.01" stop-color="#bdbfc1"/><stop offset="0.26" stop-color="#dadbdc"/><stop offset="0.51" stop-color="#eeefef"/><stop offset="0.76" stop-color="#fbfbfb"/><stop offset="1" stop-color="#fff"/></linearGradient><linearGradient id="linear-gradient-2" x1="490.77" y1="166.51" x2="508.28" y2="166.51" gradientTransform="translate(-341.35 -113.98)" gradientUnits="userSpaceOnUse"><stop offset="0" stop-color="#003974"/><stop offset="0.5" stop-color="#00529c"/><stop offset="1" stop-color="#003974"/></linearGradient><linearGradient id="linear-gradient-3" x1="673.94" y1="28.69" x2="690.91" y2="28.69" gradientTransform="translate(-523.98 0.69)" gradientUnits="userSpaceOnUse"><stop offset="0" stop-color="#e12b22"/><stop offset="0.08" stop-color="#e23127"/><stop offset="0.19" stop-color="#e44234"/><stop offset="0.31" stop-color="#e85d4a"/><stop offset="0.44" stop-color="#ed8369"/><stop offset="0.5" stop-color="#ef9577"/><stop offset="0.62" stop-color="#eb745c"/><stop offset="0.79" stop-color="#e54c3d"/><stop offset="0.92" stop-color="#e23429"/><stop offset="1" stop-color="#e12b22"/></linearGradient><linearGradient id="linear-gradient-4" x1="673.8" y1="18.27" x2="690.91" y2="18.27" gradientTransform="translate(-523.98 0.69)" gradientUnits="userSpaceOnUse"><stop offset="0" stop-color="#00529c"/><stop offset="0.41" stop-color="#005099"/><stop offset="0.66" stop-color="#004b91"/><stop offset="0.86" stop-color="#004283"/><stop offset="1" stop-color="#003974"/></linearGradient><linearGradient id="linear-gradient-5" x1="658.42" y1="20.04" x2="672.9" y2="20.04" gradientTransform="translate(-523.98 0.69)" gradientUnits="userSpaceOnUse"><stop offset="0" stop-color="#bb2219"/><stop offset="1" stop-color="#e12b22"/></linearGradient></defs><title>tennis_half</title><g id="Layer_2" data-name="Layer 2"><g id="Layer_1-2" data-name="Layer 1"><path class="cls-1" d="M149.9,15.33c0-.51-.06-1-.09-1.52h-.9c0,.39-.07.77-.1,1.16A6.17,6.17,0,0,1,149.9,15.33Z"/><path class="cls-2" d="M151,30.73c-.38-.36-.73-.64-1.05-.91a150.38,150.38,0,0,1-2.87,24A15.57,15.57,0,0,0,150,57.31c3.17,2.69,5.47,5.73,6.06,8h7.85c0-3.64-1.78-6.79-7.45-11.92a24.12,24.12,0,0,1-7-13.54s.85.86,1.34,1.31c3.09,3.07,5.36,3.73,7.81,4,3.8.38,5.09.62,8.35,3.16V37.53c-3.27-2.47-4.58-2.55-8.36-3.16C154.25,33.68,154.6,34.06,151,30.73Z"/><path class="cls-3" d="M147.35,35.85h0a59.56,59.56,0,0,1-2.63,13.48,29.21,29.21,0,0,0,2.35,4.52,150.38,150.38,0,0,0,2.87-24,10.9,10.9,0,0,0-2-1.36C147.75,31.06,147.58,33.51,147.35,35.85Z"/><path class="cls-2" d="M138.07,32a25.88,25.88,0,0,1,4.24.82l-.11,0a4.63,4.63,0,0,0-.91-2.19c-1-1.51-2.32-1.94-5.41-4.38a6.31,6.31,0,0,1-1.45-1.65v6.33S134.43,31.53,138.07,32Z"/><path class="cls-4" d="M135.89,26.2c3.08,2.45,4.42,2.87,5.41,4.38a4.63,4.63,0,0,1,.91,2.19l.11,0c.38.12.75.25,1.11.39l.34.15c.3.14.59.28.88.44L145,34c.29.18.57.37.85.58l.33.24a12.53,12.53,0,0,1,1.15,1c.23-2.34.4-4.79.57-7.4h0l0-.81c-3.39-3.53-6.06-4-10-4.57-2.32-.32-3.12-.74-3.39-1a.72.72,0,0,1-.09-.1.23.23,0,0,1-.05-.12v2.69A6.31,6.31,0,0,0,135.89,26.2Z"/><path class="cls-5" d="M144.7,49.27l0,.07a59.56,59.56,0,0,0,2.63-13.48h0a12.53,12.53,0,0,0-1.15-1l-.33-.24c-.28-.21-.56-.4-.85-.58l-.38-.22c-.29-.16-.58-.31-.88-.44l-.34-.15c-.36-.14-.73-.27-1.11-.39a25.88,25.88,0,0,0-4.24-.82c-3.65-.46-3.64-1.11-3.64-1.11V65.27a40,40,0,0,0,10.29-15.93Z"/><path class="cls-5" d="M134.44,61c4.05-4,7.09-7.43,8.23-11.75,1.73-6.49-.69.87-8.22-8.65"/><path class="cls-5" d="M134.44,60.9c4-3.91,7-7.33,8.13-11.6,1.71-6.43-.69.75-8.11-8.62"/><path class="cls-6" d="M134.44,60.82c3.95-3.86,6.9-7.23,8-11.46,1.7-6.36-.68.64-8-8.58"/><path class="cls-7" d="M134.44,60.75c3.9-3.8,6.81-7.13,7.92-11.31,1.68-6.29-.68.52-7.91-8.55"/><path class="cls-7" d="M134.44,60.68c3.84-3.75,6.72-7,7.82-11.16,1.66-6.23-.68.41-7.8-8.52"/><path class="cls-8" d="M134.44,60.6c3.79-3.69,6.63-6.93,7.71-11,1.64-6.16-.68.3-7.7-8.49"/><path class="cls-9" d="M134.44,60.53c3.74-3.64,6.54-6.83,7.61-10.87,1.62-6.09-.68.18-7.6-8.45"/><path class="cls-10" d="M134.45,60.46c3.69-3.59,6.45-6.73,7.51-10.72,1.61-6-.68.07-7.5-8.42"/><path class="cls-10" d="M134.45,60.38c3.64-3.53,6.36-6.63,7.4-10.58,1.59-6-.68,0-7.39-8.39"/><path class="cls-10" d="M134.45,60.31c3.59-3.48,6.26-6.53,7.3-10.43,1.57-5.89-.67-.16-7.29-8.35"/><path class="cls-11" d="M134.45,60.24c3.53-3.42,6.17-6.43,7.19-10.28,1.55-5.83-.67-.27-7.19-8.32"/><path class="cls-11" d="M134.45,60.16c3.48-3.37,6.08-6.33,7.09-10.14,1.54-5.76-.67-.39-7.08-8.29"/><path class="cls-12" d="M134.45,60.09c3.43-3.31,6-6.23,7-10,1.52-5.69-.67-.5-7-8.26"/><path class="cls-12" d="M134.45,60c3.38-3.26,5.9-6.13,6.88-9.84,1.5-5.62-.67-.62-6.88-8.22"/><path class="cls-13" d="M134.46,59.94c3.33-3.21,5.81-6,6.78-9.7,1.48-5.56-.67-.73-6.77-8.19"/><path class="cls-14" d="M134.46,59.87c3.28-3.15,5.72-5.93,6.68-9.55,1.46-5.49-.67-.84-6.67-8.16"/><path class="cls-14" d="M134.46,59.79c3.22-3.1,5.62-5.84,6.57-9.4,1.45-5.42-.66-1-6.57-8.12"/><path class="cls-15" d="M134.46,59.72c3.17-3,5.53-5.74,6.47-9.26,1.43-5.36-.66-1.07-6.46-8.09"/><path class="cls-16" d="M134.46,59.65c3.12-3,5.44-5.64,6.36-9.11,1.41-5.29-.66-1.19-6.36-8.06"/><path class="cls-17" d="M134.46,59.57c3.07-2.94,5.35-5.54,6.26-9,1.39-5.22-.66-1.3-6.26-8"/><path class="cls-18" d="M134.46,59.5c3-2.88,5.26-5.44,6.16-8.82,1.38-5.16-.66-1.41-6.15-8"/><path class="cls-19" d="M134.46,59.43c3-2.83,5.17-5.34,6.05-8.67,1.36-5.09-.66-1.53-6.05-8"/><path class="cls-20" d="M134.47,59.35c2.91-2.77,5.08-5.24,5.95-8.52,1.34-5-.66-1.64-5.95-7.93"/><path class="cls-21" d="M134.47,59.28c2.86-2.72,5-5.14,5.84-8.38,1.32-5-.66-1.75-5.85-7.9"/><path class="cls-22" d="M134.47,59.21c2.81-2.66,4.89-5,5.74-8.23,1.3-4.89-.65-1.87-5.74-7.86"/><path class="cls-23" d="M134.47,59.13c2.76-2.61,4.8-4.94,5.64-8.08,1.28-4.82-.65-2-5.64-7.83"/><path class="cls-24" d="M134.47,59.06c2.71-2.56,4.71-4.84,5.53-7.94,1.27-4.76-.65-2.1-5.54-7.8"/><path class="cls-25" d="M134.47,59c2.66-2.5,4.62-4.74,5.43-7.79,1.25-4.69-.65-2.21-5.43-7.76"/><path class="cls-26" d="M134.47,58.91c2.61-2.45,4.53-4.64,5.33-7.64,1.23-4.62-.65-2.32-5.33-7.73"/><path class="cls-27" d="M134.48,58.84c2.55-2.39,4.44-4.54,5.22-7.5,1.21-4.56-.65-2.44-5.23-7.7"/><path class="cls-28" d="M134.48,58.77c2.5-2.34,4.35-4.44,5.12-7.35,1.2-4.49-.65-2.55-5.12-7.67"/><path class="cls-29" d="M134.48,58.69c2.45-2.29,4.26-4.34,5-7.2,1.18-4.42-.64-2.67-5-7.63"/><path class="cls-30" d="M134.48,58.62c2.4-2.23,4.16-4.24,4.91-7.06,1.16-4.36-.64-2.78-4.92-7.6"/><path class="cls-31" d="M134.48,58.55c2.35-2.18,4.07-4.14,4.81-6.91,1.14-4.29-.64-2.9-4.81-7.57"/><path class="cls-32" d="M134.48,58.47c2.29-2.12,4-4,4.7-6.76,1.12-4.22-.64-3-4.71-7.54"/><path class="cls-33" d="M134.48,58.4c2.24-2.07,3.89-3.94,4.6-6.62,1.11-4.16-.64-3.12-4.61-7.5"/><path class="cls-34" d="M134.48,58.33c2.19-2,3.8-3.84,4.49-6.47,1.09-4.09-.64-3.24-4.5-7.47"/><path class="cls-35" d="M134.49,58.25c2.14-2,3.71-3.74,4.39-6.32,1.07-4-.64-3.35-4.4-7.44"/><path class="cls-36" d="M134.49,58.18c2.09-1.91,3.62-3.64,4.29-6.18,1.05-4-.63-3.46-4.3-7.4"/><path class="cls-37" d="M134.49,58.1c2-1.85,3.52-3.54,4.18-6,1-3.89-.63-3.58-4.2-7.37"/><path class="cls-38" d="M134.49,58c2-1.8,3.43-3.44,4.08-5.88,1-3.82-.63-3.69-4.09-7.34"/><path class="cls-39" d="M134.49,58c1.93-1.74,3.34-3.34,4-5.74,1-3.75-.63-3.81-4-7.31"/><path class="cls-40" d="M134.49,57.88c1.88-1.69,3.25-3.25,3.87-5.59,1-3.69-.63-3.92-3.89-7.27"/><path class="cls-41" d="M134.49,57.81a10.82,10.82,0,0,0,3.77-5.44c1-3.62-.63-4-3.78-7.24"/><path class="cls-42" d="M134.5,57.74a10.47,10.47,0,0,0,3.66-5.3c.95-3.55-.63-4.15-3.68-7.21"/><path class="cls-43" d="M134.5,57.66a10.1,10.1,0,0,0,3.56-5.15c.93-3.49-.62-4.26-3.58-7.18"/><path class="cls-44" d="M134.5,57.59a9.75,9.75,0,0,0,3.46-5c.91-3.42-.62-4.38-3.47-7.14"/><path class="cls-45" d="M134.5,57.52a9.38,9.38,0,0,0,3.35-4.86c.89-3.35-.62-4.49-3.37-7.11"/><path class="cls-46" d="M134.5,57.44a9,9,0,0,0,3.25-4.71c.87-3.29-.62-4.61-3.27-7.08"/><path class="cls-47" d="M134.5,57.37a8.67,8.67,0,0,0,3.15-4.56c.86-3.22-.62-4.72-3.16-7"/><path class="cls-48" d="M134.5,57.3a8.31,8.31,0,0,0,3-4.42c.84-3.15-.62-4.83-3.06-7"/><path class="cls-49" d="M134.5,57.22A8,8,0,0,0,137.44,53c.82-3.09-.62-4.95-3-7"/><path class="cls-50" d="M134.51,57.15A7.6,7.6,0,0,0,137.34,53c.8-3-.62-5.06-2.85-6.95"/><path class="cls-51" d="M144.73,49.34a40,40,0,0,1-10.29,15.93h9.22a60,60,0,0,0,3.43-11.41A29.21,29.21,0,0,1,144.73,49.34Z"/><path class="cls-52" d="M150,57.31a15.57,15.57,0,0,1-2.89-3.46,60,60,0,0,1-3.43,11.41H156C155.44,63,153.14,60,150,57.31Z"/><path class="cls-2" d="M153.37,17.75a12.71,12.71,0,0,0-3.47-2.42q.16,2.92.19,5.89a16.63,16.63,0,0,1,2,1.6c3.58,3.31,3.24,3.51,7.55,4.2,3.7.59,4.93.77,7.27,2.39V24.12a22.46,22.46,0,0,0-6-2.17C156.6,21.24,157,21.09,153.37,17.75Z"/><path class="cls-53" d="M150.76,41.11c-.49-.45-1.34-1.31-1.34-1.31a24.12,24.12,0,0,0,7,13.54c5.67,5.13,7.5,8.29,7.45,11.92h3.05v-17c-3.26-2.53-4.55-2.78-8.35-3.16C156.12,44.84,153.85,44.17,150.76,41.11Z"/><path class="cls-54" d="M152.11,22.83a16.63,16.63,0,0,0-2-1.6c0,2.85,0,5.74-.14,8.59.32.26.67.55,1.05.91,3.59,3.34,3.24,3,7.56,3.65,3.78.61,5.09.69,8.36,3.16V29.42c-2.34-1.61-3.58-1.8-7.27-2.39C155.35,26.34,155.69,26.14,152.11,22.83Z"/><path class="cls-51" d="M148,27.65h0c0,.27,0,.54-.06.81a10.9,10.9,0,0,1,2,1.36c.12-2.86.17-5.74.14-8.59a10.62,10.62,0,0,0-1.66-.94C148.26,22.87,148.12,25.32,148,27.65Z"/><path class="cls-3" d="M148.44,20.28a10.62,10.62,0,0,1,1.66.94q0-3-.19-5.89a6.17,6.17,0,0,0-1.08-.36C148.68,16.8,148.55,18.58,148.44,20.28Z"/><path class="cls-55" d="M149.9,15.33a12.71,12.71,0,0,1,3.47,2.42c3.58,3.34,3.23,3.49,7.55,4.2a22.46,22.46,0,0,1,6,2.17V13.81H149.81C149.84,14.32,149.88,14.83,149.9,15.33Z"/><path class="cls-56" d="M134.58,22.08c.27.26,1.08.68,3.39,1,3.94.54,6.61,1,10,4.57.14-2.33.28-4.77.46-7.36h0c.11-1.7.24-3.49.38-5.31h0c0-.39.06-.76.1-1.16H134.44v8a.23.23,0,0,0,.05.12A.72.72,0,0,0,134.58,22.08Z"/><path class="cls-2" d="M178,14.28h10.4c3.84-.06,8,.93,8,5.58a5,5,0,0,1-2.93,4.48,5.28,5.28,0,0,1,3.83,5.27c0,5.29-3.89,6.91-8.66,6.91H178ZM183.77,23h4.49a2.16,2.16,0,0,0,2.37-2.12c0-1.62-1.15-2.15-2.37-2.15h-4.49Zm0,8.85h4.64c1.84,0,3.11-.66,3.11-2.49s-1.37-2.62-3.11-2.62h-4.64Z"/><path class="cls-2" d="M201.26,14.28h11.33c3.93,0,7.79,1.78,7.79,6.26a5.72,5.72,0,0,1-3.49,5.57v.06c2.37.56,3.05,3.21,3.24,5.33.06.94.16,4.2.94,5h-5.73c-.5-.75-.59-2.93-.65-3.55-.15-2.24-.53-4.55-3.24-4.55H207v8.1h-5.79ZM207,23.94h4.86a2.38,2.38,0,0,0,2.68-2.62c0-1.65-1.31-2.4-2.93-2.4H207Z"/><path class="cls-2" d="M224.53,14.28h5.79V36.52h-5.79Z"/><path class="cls-2" d="M252.76,19.26h-6.63V36.52h-5.79V19.26H233.7v-5h19.06Z"/><path class="cls-2" d="M256.1,14.28h5.79V36.52H256.1Z"/><path class="cls-2" d="M271.21,29c.13,2.62,1.75,3.46,4.2,3.46,1.75,0,3.55-.62,3.55-2.27,0-2-3.18-2.33-6.38-3.24s-6.51-2.34-6.51-6.42c0-4.86,4.89-6.76,9.06-6.76C279.56,13.81,284,16,284,21h-5.79c.09-2-1.81-2.68-3.58-2.68-1.24,0-2.8.44-2.8,1.9,0,1.71,3.21,2,6.45,2.93s6.44,2.4,6.44,6.42c0,5.64-4.79,7.44-9.69,7.44-5.11,0-9.62-2.25-9.65-7.94Z"/><path class="cls-2" d="M288.2,14.28H294v8.1h7.63v-8.1h5.79V36.52h-5.79V27.36H294v9.16H288.2Z"/><path class="cls-2" d="M198.38,46.3h-7.1V64.77h-6.2V46.3H178V41h20.4Z"/><path class="cls-2" d="M202,41h19v5H208.16V50.1h11.67v4.8H208.16v4.54h13.1v5.33H202Z"/><path class="cls-2" d="M225.57,41h6.37l8.27,14.67h.07V41h5.84v23.8h-6.37l-8.27-14.83h-.07V64.77h-5.83Z"/><path class="cls-2" d="M251.12,41h6.37l8.27,14.67h.07V41h5.84v23.8h-6.37L257,49.93H257V64.77h-5.84Z"/><path class="cls-2" d="M276.74,41h6.2v23.8h-6.2Z"/><path class="cls-2" d="M292.91,56.77c.13,2.8,1.87,3.7,4.5,3.7,1.86,0,3.8-.67,3.8-2.43,0-2.1-3.4-2.5-6.84-3.47s-7-2.5-7-6.86c0-5.21,5.24-7.24,9.7-7.24,4.73,0,9.5,2.3,9.54,7.67h-6.2c.1-2.17-1.93-2.87-3.83-2.87-1.33,0-3,.47-3,2,0,1.83,3.43,2.17,6.9,3.13s6.9,2.56,6.9,6.87c0,6-5.13,8-10.37,8-5.46,0-10.3-2.4-10.34-8.5Z"/><path class="cls-2" d="M110,15a1.68,1.68,0,0,0-1.62-1.19H98.45L78.92,65.27H89.45L90,63.83c1.23-3.68,5.06-12.24,13.89-12.24s12.65,8.56,13.89,12.24l.5,1.44h10.54Zm-6.13,29c-4.51,0-6.54,1.51-6.54,1.51l6.54-19.05,6.54,19.05S108.36,44,103.85,44Z"/><path class="cls-2" d="M48.14,65.27V55.64h-21a2.24,2.24,0,0,1-2.25-2.25V13.81h-11V57a8.29,8.29,0,0,0,8.28,8.29Z"/><path class="cls-2" d="M85.1,15.44a1.62,1.62,0,0,0-1.62-1.62H41V21a1.62,1.62,0,0,0,1.62,1.62H57.52V65.27H68.57V22.66H85.1Z"/><polygon class="cls-2" points="129.9 87.03 128.45 90.31 131.5 90.31 129.94 87.03 129.9 87.03"/><path class="cls-2" d="M227.21,86.29a4.85,4.85,0,0,0-1.38-.11h-1.36v3.23h1.2a6,6,0,0,0,1.41-.13,1.52,1.52,0,0,0,1.28-1.52A1.44,1.44,0,0,0,227.21,86.29Z"/><path class="cls-2" d="M75.39,86.13a3.43,3.43,0,1,0,0,6.85C77.76,93,79,91.56,79,89.56A3.28,3.28,0,0,0,75.39,86.13Z"/><path class="cls-2" d="M312.86,0H0V93.76A8.29,8.29,0,0,0,8.28,102H321.15V8.28A8.29,8.29,0,0,0,312.86,0ZM75.39,95c-3.44,0-5.92-2-5.92-5.39s2.46-5.39,5.92-5.39,5.94,2.11,5.94,5.39S78.85,95,75.39,95Zm16.19-8.77H85.84v2.51h5.23v1.92H85.84v4.18H83.61V84.24h8Zm10.08,0H95.92v2.51h5.23v1.92H95.92v4.18H93.69V84.24h8ZM106,94.79h-2.22V84.24H106Zm8.23.16c-3.76,0-5.94-2.13-5.94-5.28s2.45-5.51,6-5.51a9.71,9.71,0,0,1,4.08.9l-.62,1.79a7.83,7.83,0,0,0-3.3-.72c-2.38,0-3.86,1.46-3.86,3.44S111.92,93,114.4,93a8.09,8.09,0,0,0,3.35-.7l.69,1.82A10.41,10.41,0,0,1,114.22,95Zm8.3-.16H120.3V84.24h2.22Zm11.14,0-1.23-2.58H127.6l-1.14,2.58H124l5-10.6h1.84l5.3,10.6Zm11.7,0h-7.7V84.24h2.22v8.61h5.47Zm12.83-8.61h-3.76v8.61h-2.24V86.18h-3.76V84.24h9.76Zm3.69,8.61h-2.22V84.24h2.22Zm15.46,0h-2.23v-6.9h0l-3.89,4.64h-.32L167,87.89h0v6.9h-2.22V84.24h1.94L171,89.46h0l4.37-5.22h1.91Zm10.83,0h-8V84.24h7.89v1.94h-5.67v2.3h5.15v1.94h-5.15v2.43h5.76Zm9.07,0-3.78-4.23-.7.7v3.52h-2.22V84.24h2.22v4.39h0l4.13-4.39h2.85L195,89.08l5.14,5.71Zm12.29,0h-8V84.24h7.89v1.94h-5.67v2.3h5.15v1.94h-5.15v2.43h5.76Zm10.35,0h-8V84.24h7.89v1.94h-5.67v2.3h5.15v1.94h-5.15v2.43h5.76Zm7.77-3.65a8.39,8.39,0,0,1-2,.18h-1.23v3.47h-2.22V84.24h3.68a7.75,7.75,0,0,1,2.06.22,3.24,3.24,0,0,1,2.67,3.25A3.43,3.43,0,0,1,227.66,91.14Zm13.17,3.65h-8V84.24h7.89v1.94h-5.67v2.3h5.15v1.94h-5.15v2.43h5.76Zm10.25.13a3.23,3.23,0,0,1-1.89-.58c-1.62-1.1-2.1-3.44-3.06-3.44h-.72v3.89H243.2V84.24h3.75a7.4,7.4,0,0,1,2.38.3,2.92,2.92,0,0,1,2.21,2.95c0,1.67-1.12,2.67-2.88,3v0c.67.38,1.06,1.63,1.83,2.21a1.43,1.43,0,0,0,.93.34,2.76,2.76,0,0,0,.78-.13l.42,1.76A4.72,4.72,0,0,1,251.09,94.92Zm67.38-18.6H8.36a5.53,5.53,0,0,1-5.52-5.53v-68h310.1a5.53,5.53,0,0,1,5.53,5.53Z"/><path class="cls-2" d="M249.23,87.56a1.21,1.21,0,0,0-.9-1.23,4.71,4.71,0,0,0-1.39-.14h-1.52V89h1.33a4.67,4.67,0,0,0,1.49-.18A1.3,1.3,0,0,0,249.23,87.56Z"/></g></g></svg>